<svg id="visual" viewBox="0 0 900 600" width="900" height="600" xmlns="http://www.w3.org/2000/svg" xmlns:xlink="http://www.w3.org/1999/xlink" version="1.1"><path d="M776 600L814 600L814 571L664 571L664 543L427 543L427 514L768 514L768 486L901 486L901 457L233 457L233 429L384 429L384 400L529 400L529 371L748 371L748 343L463 343L463 314L425 314L425 286L62 286L62 257L403 257L403 229L163 229L163 200L869 200L869 171L350 171L350 143L498 143L498 114L348 114L348 86L426 86L426 57L155 57L155 29L74 29L74 0L900 0L900 29L900 29L900 57L900 57L900 86L900 86L900 114L900 114L900 143L900 143L900 171L900 171L900 200L900 200L900 229L900 229L900 257L900 257L900 286L900 286L900 314L900 314L900 343L900 343L900 371L900 371L900 400L900 400L900 429L900 429L900 457L900 457L900 486L900 486L900 514L900 514L900 543L900 543L900 571L900 571L900 600L900 600Z" fill="#00ee0e"></path><path d="M180 600L684 600L684 571L186 571L186 543L150 543L150 514L628 514L628 486L825 486L825 457L220 457L220 429L375 429L375 400L247 400L247 371L737 371L737 343L705 343L705 314L861 314L861 286L321 286L321 257L797 257L797 229L886 229L886 200L133 200L133 171L571 171L571 143L158 143L158 114L222 114L222 86L199 86L199 57L678 57L678 29L362 29L362 0L900 0L900 29L900 29L900 57L900 57L900 86L900 86L900 114L900 114L900 143L900 143L900 171L900 171L900 200L900 200L900 229L900 229L900 257L900 257L900 286L900 286L900 314L900 314L900 343L900 343L900 371L900 371L900 400L900 400L900 429L900 429L900 457L900 457L900 486L900 486L900 514L900 514L900 543L900 543L900 571L900 571L900 600L900 600Z" fill="#00d527"></path><path d="M486 600L732 600L732 571L517 571L517 543L201 543L201 514L333 514L333 486L642 486L642 457L495 457L495 429L447 429L447 400L797 400L797 371L686 371L686 343L273 343L273 314L359 314L359 286L235 286L235 257L691 257L691 229L374 229L374 200L720 200L720 171L199 171L199 143L346 143L346 114L224 114L224 86L654 86L654 57L161 57L161 29L767 29L767 0L900 0L900 29L900 29L900 57L900 57L900 86L900 86L900 114L900 114L900 143L900 143L900 171L900 171L900 200L900 200L900 229L900 229L900 257L900 257L900 286L900 286L900 314L900 314L900 343L900 343L900 371L900 371L900 400L900 400L900 429L900 429L900 457L900 457L900 486L900 486L900 514L900 514L900 543L900 543L900 571L900 571L900 600L900 600Z" fill="#00bc31"></path><path d="M605 600L253 600L253 571L793 571L793 543L435 543L435 514L417 514L417 486L547 486L547 457L803 457L803 429L442 429L442 400L570 400L570 371L630 371L630 343L767 343L767 314L577 314L577 286L249 286L249 257L532 257L532 229L261 229L261 200L532 200L532 171L581 171L581 143L378 143L378 114L598 114L598 86L827 86L827 57L604 57L604 29L389 29L389 0L900 0L900 29L900 29L900 57L900 57L900 86L900 86L900 114L900 114L900 143L900 143L900 171L900 171L900 200L900 200L900 229L900 229L900 257L900 257L900 286L900 286L900 314L900 314L900 343L900 343L900 371L900 371L900 400L900 400L900 429L900 429L900 457L900 457L900 486L900 486L900 514L900 514L900 543L900 543L900 571L900 571L900 600L900 600Z" fill="#0ca436"></path><path d="M322 600L807 600L807 571L467 571L467 543L523 543L523 514L700 514L700 486L837 486L837 457L842 457L842 429L867 429L867 400L823 400L823 371L358 371L358 343L600 343L600 314L568 314L568 286L565 286L565 257L476 257L476 229L317 229L317 200L495 200L495 171L551 171L551 143L369 143L369 114L802 114L802 86L683 86L683 57L392 57L392 29L821 29L821 0L900 0L900 29L900 29L900 57L900 57L900 86L900 86L900 114L900 114L900 143L900 143L900 171L900 171L900 200L900 200L900 229L900 229L900 257L900 257L900 286L900 286L900 314L900 314L900 343L900 343L900 371L900 371L900 400L900 400L900 429L900 429L900 457L900 457L900 486L900 486L900 514L900 514L900 543L900 543L900 571L900 571L900 600L900 600Z" fill="#178c37"></path><path d="M841 600L668 600L668 571L818 571L818 543L610 543L610 514L605 514L605 486L413 486L413 457L571 457L571 429L892 429L892 400L421 400L421 371L607 371L607 343L613 343L613 314L417 314L417 286L577 286L577 257L654 257L654 229L812 229L812 200L395 200L395 171L839 171L839 143L467 143L467 114L479 114L479 86L816 86L816 57L851 57L851 29L690 29L690 0L900 0L900 29L900 29L900 57L900 57L900 86L900 86L900 114L900 114L900 143L900 143L900 171L900 171L900 200L900 200L900 229L900 229L900 257L900 257L900 286L900 286L900 314L900 314L900 343L900 343L900 371L900 371L900 400L900 400L900 429L900 429L900 457L900 457L900 486L900 486L900 514L900 514L900 543L900 543L900 571L900 571L900 600L900 600Z" fill="#178c37"></path><path d="M769 600L765 600L765 571L605 571L605 543L851 543L851 514L650 514L650 486L519 486L519 457L575 457L575 429L465 429L465 400L619 400L619 371L899 371L899 343L812 343L812 314L766 314L766 286L483 286L483 257L878 257L878 229L862 229L862 200L887 200L887 171L482 171L482 143L884 143L884 114L865 114L865 86L775 86L775 57L561 57L561 29L590 29L590 0L900 0L900 29L900 29L900 57L900 57L900 86L900 86L900 114L900 114L900 143L900 143L900 171L900 171L900 200L900 200L900 229L900 229L900 257L900 257L900 286L900 286L900 314L900 314L900 343L900 343L900 371L900 371L900 400L900 400L900 429L900 429L900 457L900 457L900 486L900 486L900 514L900 514L900 543L900 543L900 571L900 571L900 600L900 600Z" fill="#178c37"></path><path d="M723 600L900 600L900 571L658 571L658 543L561 543L561 514L826 514L826 486L526 486L526 457L546 457L546 429L608 429L608 400L782 400L782 371L873 371L873 343L592 343L592 314L668 314L668 286L803 286L803 257L843 257L843 229L807 229L807 200L858 200L858 171L532 171L532 143L570 143L570 114L553 114L553 86L688 86L688 57L666 57L666 29L528 29L528 0L900 0L900 29L900 29L900 57L900 57L900 86L900 86L900 114L900 114L900 143L900 143L900 171L900 171L900 200L900 200L900 229L900 229L900 257L900 257L900 286L900 286L900 314L900 314L900 343L900 343L900 371L900 371L900 400L900 400L900 429L900 429L900 457L900 457L900 486L900 486L900 514L900 514L900 543L900 543L900 571L900 571L900 600L900 600Z" fill="#0ca436"></path><path d="M848 600L818 600L818 571L873 571L873 543L607 543L607 514L870 514L870 486L651 486L651 457L698 457L698 429L744 429L744 400L667 400L667 371L773 371L773 343L832 343L832 314L650 314L650 286L825 286L825 257L656 257L656 229L849 229L849 200L751 200L751 171L812 171L812 143L717 143L717 114L791 114L791 86L671 86L671 57L833 57L833 29L896 29L896 0L900 0L900 29L900 29L900 57L900 57L900 86L900 86L900 114L900 114L900 143L900 143L900 171L900 171L900 200L900 200L900 229L900 229L900 257L900 257L900 286L900 286L900 314L900 314L900 343L900 343L900 371L900 371L900 400L900 400L900 429L900 429L900 457L900 457L900 486L900 486L900 514L900 514L900 543L900 543L900 571L900 571L900 600L900 600Z" fill="#00bc31"></path><path d="M768 600L682 600L682 571L867 571L867 543L683 543L683 514L864 514L864 486L724 486L724 457L809 457L809 429L732 429L732 400L799 400L799 371L838 371L838 343L739 343L739 314L746 314L746 286L846 286L846 257L763 257L763 229L686 229L686 200L772 200L772 171L771 171L771 143L753 143L753 114L724 114L724 86L764 86L764 57L715 57L715 29L801 29L801 0L900 0L900 29L900 29L900 57L900 57L900 86L900 86L900 114L900 114L900 143L900 143L900 171L900 171L900 200L900 200L900 229L900 229L900 257L900 257L900 286L900 286L900 314L900 314L900 343L900 343L900 371L900 371L900 400L900 400L900 429L900 429L900 457L900 457L900 486L900 486L900 514L900 514L900 543L900 543L900 571L900 571L900 600L900 600Z" fill="#00d527"></path><path d="M821 600L817 600L817 571L857 571L857 543L900 543L900 514L834 514L834 486L888 486L888 457L844 457L844 429L835 429L835 400L755 400L755 371L770 371L770 343L843 343L843 314L866 314L866 286L843 286L843 257L808 257L808 229L770 229L770 200L792 200L792 171L800 171L800 143L852 143L852 114L773 114L773 86L874 86L874 57L894 57L894 29L866 29L866 0L900 0L900 29L900 29L900 57L900 57L900 86L900 86L900 114L900 114L900 143L900 143L900 171L900 171L900 200L900 200L900 229L900 229L900 257L900 257L900 286L900 286L900 314L900 314L900 343L900 343L900 371L900 371L900 400L900 400L900 429L900 429L900 457L900 457L900 486L900 486L900 514L900 514L900 543L900 543L900 571L900 571L900 600L900 600Z" fill="#00ee0e"></path></svg>